<svg width="32" height="32" viewBox="0 0 32 32" fill="none" xmlns="http://www.w3.org/2000/svg">
<g clip-path="url(#clip0_931_28)">
<path d="M6.70494 10.7223C6.81546 11.152 6.94153 11.5915 7.08283 12.0391C7.51498 11.9188 7.96596 11.8068 8.43396 11.704C8.2905 11.254 8.1636 10.8139 8.05348 10.3857C7.58868 10.4892 7.13862 10.6015 6.70494 10.7223Z" fill="#8B66B9"/>
<path fill-rule="evenodd" clip-rule="evenodd" d="M2.36449 14.2709C1.67604 14.8821 1.3913 15.4676 1.3913 16C1.3913 16.5325 1.67604 17.1179 2.36449 17.7291C3.05285 18.3402 4.088 18.9219 5.42633 19.4245C5.94053 19.6176 6.49422 19.797 7.08283 19.9609C6.94153 20.4085 6.81546 20.848 6.70494 21.2777C6.07744 21.1031 5.48419 20.9109 4.93005 20.7028C3.49884 20.1653 2.29272 19.5087 1.4322 18.7448C0.571759 17.9809 0 17.0545 0 16C0 14.9455 0.571759 14.0191 1.4322 13.2553C2.29272 12.4913 3.49884 11.8347 4.93005 11.2973C5.48419 11.0892 6.07744 10.897 6.70494 10.7223C6.81546 11.152 6.94153 11.5915 7.08283 12.0391C6.49421 12.203 5.94053 12.3825 5.42633 12.5755C4.088 13.0781 3.05285 13.6598 2.36449 14.2709ZM16 5.44453C15.6768 5.75354 15.3528 6.08066 15.0293 6.42481C14.5907 6.00543 14.1558 5.62358 13.7287 5.28218C12.617 4.39359 11.5872 3.80281 10.7049 3.52209C9.82243 3.24134 9.16451 3.29156 8.69565 3.55778C8.22678 3.824 7.8536 4.35924 7.65962 5.25118C7.46565 6.14303 7.47097 7.31552 7.6976 8.70665C7.78467 9.24114 7.9035 9.80243 8.05348 10.3857C7.58868 10.4892 7.13862 10.6015 6.70494 10.7223C6.54502 10.1005 6.41765 9.49912 6.32381 8.92311C6.08146 7.43544 6.05661 6.07987 6.29909 4.96499C6.54154 3.85021 7.07141 2.90005 7.99999 2.3728C8.92858 1.84555 10.0302 1.86934 11.1331 2.22023C12.2361 2.57116 13.4174 3.2701 14.6062 4.22035C15.0665 4.58828 15.5324 4.99744 16 5.44453ZM25.2951 10.7223C24.8614 10.6015 24.4113 10.4892 23.9465 10.3857C24.0965 9.80243 24.2153 9.24113 24.3024 8.70664C24.529 7.31551 24.5343 6.14302 24.3404 5.25117C24.1464 4.35923 23.7732 3.82399 23.3043 3.55777C22.8355 3.29155 22.1776 3.24133 21.2951 3.52208C20.4128 3.80281 19.383 4.39358 18.2713 5.28217C17.8441 5.62357 17.4093 6.00543 16.9706 6.42481C16.6471 6.08066 16.3232 5.75354 16 5.44453C16.4676 4.99744 16.9335 4.58827 17.3938 4.22034C18.5826 3.27009 19.7639 2.57115 20.8669 2.22022C21.9698 1.86933 23.0714 1.84555 24 2.3728C24.9286 2.90004 25.4584 3.8502 25.7009 4.96498C25.9434 6.07986 25.9185 7.43543 25.6762 8.9231C25.5823 9.49911 25.455 10.1005 25.2951 10.7223ZM25.2951 21.2778C25.1845 20.848 25.0585 20.4085 24.9172 19.9609C25.5058 19.797 26.0595 19.6176 26.5737 19.4245C27.912 18.9219 28.9471 18.3402 29.6355 17.7291C30.324 17.1179 30.6087 16.5325 30.6087 16C30.6087 15.4676 30.324 14.8821 29.6355 14.2709C28.9471 13.6598 27.912 13.0781 26.5737 12.5755C26.0595 12.3825 25.5058 12.203 24.9172 12.0391C25.0585 11.5915 25.1845 11.152 25.2951 10.7223C25.9226 10.897 26.5158 11.0892 27.0699 11.2973C28.5012 11.8347 29.7073 12.4913 30.5678 13.2553C31.4282 14.0191 32 14.9455 32 16C32 17.0545 31.4282 17.9809 30.5678 18.7448C29.7073 19.5087 28.5012 20.1653 27.0699 20.7028C26.5158 20.9109 25.9226 21.1031 25.2951 21.2778ZM16 26.5555C16.3232 26.2465 16.6471 25.9194 16.9706 25.5752C17.4093 25.9946 17.8441 26.3765 18.2713 26.7179C19.383 27.6064 20.4128 28.1972 21.2951 28.4779C22.1776 28.7587 22.8355 28.7085 23.3043 28.4423C23.7732 28.176 24.1464 27.6408 24.3404 26.7488C24.5343 25.857 24.529 24.6845 24.3024 23.2934C24.2153 22.7589 24.0965 22.1976 23.9465 21.6143C24.4113 21.5109 24.8614 21.3985 25.2951 21.2778C25.455 21.8995 25.5823 22.5009 25.6762 23.0769C25.9185 24.5646 25.9434 25.9202 25.7009 27.035C25.4584 28.1498 24.9286 29.1 24 29.6272C23.0714 30.1545 21.9698 30.1307 20.8669 29.7798C19.7639 29.4289 18.5826 28.7299 17.3938 27.7797C16.9335 27.4118 16.4676 27.0026 16 26.5555ZM8.05349 21.6143C7.9035 22.1976 7.78467 22.7589 7.6976 23.2934C7.47097 24.6845 7.46565 25.857 7.65962 26.7488C7.85361 27.6408 8.22678 28.176 8.69565 28.4422C9.16451 28.7085 9.82243 28.7587 10.7049 28.4779C11.5872 28.1972 12.617 27.6064 13.7287 26.7178C14.1558 26.3764 14.5907 25.9946 15.0293 25.5752C15.3528 25.9194 15.6768 26.2465 16 26.5555C15.5324 27.0026 15.0665 27.4117 14.6062 27.7797C13.4174 28.7299 12.2361 29.4289 11.1331 29.7798C10.0302 30.1307 8.92858 30.1545 7.99999 29.6272C7.07141 29.1 6.54154 28.1498 6.29909 27.035C6.05661 25.9202 6.08146 24.5646 6.32381 23.0769C6.41765 22.5009 6.54502 21.8995 6.70494 21.2777C7.13863 21.3985 7.58868 21.5109 8.05349 21.6143Z" fill="#8B66B9"/>
<path d="M8.43396 20.296C7.96596 20.1932 7.51498 20.0812 7.08283 19.9609C6.94153 20.4085 6.81546 20.848 6.70494 21.2777C7.13863 21.3985 7.58868 21.5109 8.05349 21.6143C8.1636 21.1861 8.29051 20.746 8.43396 20.296Z" fill="#8B66B9"/>
<path d="M25.2951 21.2778C25.1845 20.848 25.0585 20.4085 24.9172 19.9609C24.485 20.0812 24.034 20.1932 23.566 20.296C23.7095 20.746 23.8364 21.1861 23.9465 21.6143C24.4113 21.5109 24.8614 21.3985 25.2951 21.2778Z" fill="#8B66B9"/>
<path d="M25.2951 10.7223C24.8614 10.6015 24.4113 10.4892 23.9465 10.3857C23.8364 10.8139 23.7095 11.254 23.566 11.704C24.034 11.8068 24.485 11.9188 24.9172 12.0391C25.0585 11.5915 25.1845 11.152 25.2951 10.7223Z" fill="#8B66B9"/>
<path d="M16 26.5555C16.3232 26.2465 16.6471 25.9194 16.9706 25.5752C16.6486 25.2673 16.3245 24.9392 16 24.592C15.6754 24.9392 15.3514 25.2673 15.0293 25.5752C15.3528 25.9194 15.6768 26.2465 16 26.5555Z" fill="#8B66B9"/>
<path d="M16.9706 6.42481C16.6471 6.08066 16.3232 5.75354 16 5.44453C15.6768 5.75354 15.3528 6.08066 15.0293 6.42481C15.3514 6.73271 15.6754 7.06083 16 7.40802C16.3245 7.06083 16.6486 6.73271 16.9706 6.42481Z" fill="#8B66B9"/>
<path d="M18.2713 26.7179C19.383 27.6064 20.4128 28.1972 21.2951 28.4779C22.1776 28.7587 22.8355 28.7085 23.3043 28.4423C23.7732 28.176 24.1464 27.6408 24.3404 26.7488C24.5343 25.857 24.529 24.6845 24.3024 23.2934C24.2153 22.7589 24.0965 22.1976 23.9465 21.6143C22.6302 21.9073 21.1956 22.1289 19.679 22.2668C18.7992 23.4896 17.8868 24.6006 16.9706 25.5752C17.4093 25.9946 17.8441 26.3765 18.2713 26.7179Z" fill="#8B66B9"/>
<path d="M7.6976 23.2934C7.47097 24.6845 7.46565 25.857 7.65962 26.7488C7.85361 27.6408 8.22678 28.176 8.69565 28.4422C9.16451 28.7085 9.82243 28.7587 10.7049 28.4779C11.5872 28.1972 12.617 27.6064 13.7287 26.7178C14.1558 26.3764 14.5907 25.9946 15.0293 25.5752C14.1132 24.6006 13.2007 23.4896 12.321 22.2668C10.8044 22.1289 9.36976 21.9073 8.05349 21.6143C7.9035 22.1976 7.78467 22.7589 7.6976 23.2934Z" fill="#8B66B9"/>
<path d="M14.1364 22.3895C13.5202 22.3619 12.9143 22.3208 12.321 22.2668C13.2007 23.4896 14.1132 24.6006 15.0293 25.5752C15.3514 25.2673 15.6754 24.9392 16 24.592C15.3768 23.9254 14.7519 23.1885 14.1364 22.3895Z" fill="#8B66B9"/>
<path d="M19.679 22.2668C19.0857 22.3208 18.4798 22.3619 17.8636 22.3895C17.2481 23.1885 16.6232 23.9254 16 24.592C16.3245 24.9392 16.6486 25.2673 16.9706 25.5752C17.8868 24.6006 18.7992 23.4896 19.679 22.2668Z" fill="#8B66B9"/>
<path d="M10.1798 16C10.5888 16.835 11.0432 17.6819 11.5418 18.5314C12.0405 19.3808 12.5591 20.1913 13.0899 20.9571C14.0296 21.0263 15.0026 21.0627 16 21.0627C16.9974 21.0627 17.9703 21.0263 18.9101 20.9571C19.4409 20.1913 19.9595 19.3808 20.4581 18.5313C20.9568 17.6819 21.4112 16.835 21.8202 16C21.4112 15.165 20.9568 14.3181 20.4581 13.4687C19.9595 12.6192 19.4409 11.8087 18.9101 11.043C17.9703 10.9738 16.9974 10.9373 16 10.9373C15.0026 10.9373 14.0297 10.9738 13.0899 11.043C12.5591 11.8087 12.0405 12.6192 11.5418 13.4687C11.0432 14.3181 10.5888 15.165 10.1798 16Z" fill="#8B66B9"/>
<path d="M14.1364 22.3895C14.7519 23.1885 15.3768 23.9254 16 24.592C16.6232 23.9254 17.2481 23.1885 17.8636 22.3895C17.2519 22.4169 16.63 22.431 16 22.431C15.37 22.431 14.7481 22.4169 14.1364 22.3895Z" fill="#8B66B9"/>
<path d="M20.6947 20.782C20.3623 21.293 20.0232 21.7885 19.679 22.2668C21.1956 22.1289 22.6302 21.9073 23.9465 21.6143C23.8364 21.1861 23.7095 20.746 23.566 20.296C22.6674 20.4934 21.706 20.6572 20.6947 20.782Z" fill="#8B66B9"/>
<path d="M18.9101 20.9571C17.9703 21.0263 16.9974 21.0627 16 21.0627C15.0026 21.0627 14.0296 21.0263 13.0899 20.9571C13.4343 21.4539 13.7838 21.9319 14.1364 22.3895C14.7481 22.4169 15.37 22.431 16 22.431C16.63 22.431 17.2519 22.4169 17.8636 22.3895C18.2162 21.9319 18.5657 21.4539 18.9101 20.9571Z" fill="#8B66B9"/>
<path d="M12.321 22.2668C11.9768 21.7885 11.6377 21.293 11.3052 20.782C10.2939 20.6572 9.33258 20.4934 8.43396 20.296C8.29051 20.746 8.1636 21.1861 8.05349 21.6143C9.36976 21.9073 10.8044 22.1289 12.321 22.2668Z" fill="#8B66B9"/>
<path d="M9.44165 17.6075C9.04588 18.5313 8.70941 19.4319 8.43396 20.296C9.33258 20.4934 10.2939 20.6572 11.3052 20.782C10.9753 20.2747 10.6519 19.7521 10.3369 19.2155C10.0219 18.6789 9.72337 18.1422 9.44165 17.6075Z" fill="#8B66B9"/>
<path d="M10.3369 19.2155C10.6519 19.7521 10.9753 20.2747 11.3052 20.782C11.8845 20.8535 12.4802 20.9122 13.0899 20.9571C12.5591 20.1913 12.0405 19.3808 11.5418 18.5314C11.0432 17.6819 10.5888 16.835 10.1798 16C9.91452 16.5417 9.66836 17.0784 9.44165 17.6075C9.72337 18.1422 10.0219 18.6789 10.3369 19.2155Z" fill="#8B66B9"/>
<path d="M13.0899 20.9571C12.4802 20.9122 11.8845 20.8535 11.3052 20.782C11.6377 21.293 11.9768 21.7885 12.321 22.2668C12.9143 22.3208 13.5202 22.3619 14.1364 22.3895C13.7838 21.9319 13.4343 21.4539 13.0899 20.9571Z" fill="#8B66B9"/>
<path d="M8.642 16C8.00514 17.3607 7.48295 18.6933 7.08283 19.9609C7.51498 20.0812 7.96596 20.1932 8.43396 20.296C8.70941 19.4319 9.04588 18.5313 9.44165 17.6075C9.15785 17.0689 8.89115 16.5323 8.642 16Z" fill="#8B66B9"/>
<path d="M2.36449 14.2709C1.67604 14.8821 1.3913 15.4676 1.3913 16C1.3913 16.5325 1.67604 17.1179 2.36449 17.7291C3.05285 18.3402 4.088 18.9219 5.42633 19.4245C5.94053 19.6176 6.49422 19.797 7.08283 19.9609C7.48295 18.6933 8.00514 17.3607 8.642 16C8.00514 14.6394 7.48295 13.3067 7.08283 12.0391C6.49421 12.203 5.94053 12.3825 5.42633 12.5755C4.088 13.0781 3.05285 13.6598 2.36449 14.2709Z" fill="#8B66B9"/>
<path d="M7.08283 12.0391C7.48295 13.3067 8.00514 14.6394 8.642 16C8.89115 15.4677 9.15785 14.9311 9.44165 14.3925C9.04588 13.4688 8.70941 12.5681 8.43396 11.704C7.96596 11.8068 7.51498 11.9188 7.08283 12.0391Z" fill="#8B66B9"/>
<path d="M9.44165 14.3925C9.15785 14.9311 8.89115 15.4677 8.642 16C8.89115 16.5323 9.15785 17.0689 9.44165 17.6075C9.66836 17.0784 9.91452 16.5417 10.1798 16C9.91452 15.4583 9.66836 14.9216 9.44165 14.3925Z" fill="#8B66B9"/>
<path d="M13.0899 11.043C12.4802 11.0879 11.8845 11.1465 11.3052 11.218C10.9753 11.7253 10.6519 12.248 10.3369 12.7845C10.0219 13.3211 9.72337 13.8578 9.44165 14.3925C9.66836 14.9216 9.91452 15.4583 10.1798 16C10.5888 15.165 11.0432 14.3181 11.5418 13.4687C12.0405 12.6192 12.5591 11.8087 13.0899 11.043Z" fill="#8B66B9"/>
<path d="M8.43396 11.704C8.70941 12.5681 9.04588 13.4688 9.44165 14.3925C9.72337 13.8578 10.0219 13.3211 10.3369 12.7845C10.6519 12.248 10.9753 11.7253 11.3052 11.218C10.2939 11.3428 9.33258 11.5066 8.43396 11.704Z" fill="#8B66B9"/>
<path d="M11.3052 11.218C11.6377 10.707 11.9768 10.2116 12.321 9.7332C10.8044 9.87111 9.36976 10.0927 8.05348 10.3857C8.1636 10.8139 8.2905 11.254 8.43396 11.704C9.33258 11.5066 10.2939 11.3428 11.3052 11.218Z" fill="#8B66B9"/>
<path d="M10.7049 3.52209C9.82243 3.24134 9.16451 3.29156 8.69565 3.55778C8.22678 3.824 7.8536 4.35924 7.65962 5.25118C7.46565 6.14303 7.47097 7.31552 7.6976 8.70665C7.78467 9.24114 7.9035 9.80243 8.05348 10.3857C9.36976 10.0927 10.8044 9.87111 12.321 9.7332C13.2007 8.51046 14.1132 7.39938 15.0293 6.42481C14.5907 6.00543 14.1558 5.62358 13.7287 5.28218C12.617 4.39359 11.5872 3.80281 10.7049 3.52209Z" fill="#8B66B9"/>
<path d="M15.0293 6.42481C14.1132 7.39938 13.2007 8.51046 12.321 9.7332C12.9143 9.67925 13.5202 9.63811 14.1364 9.6105C14.7519 8.81156 15.3768 8.07466 16 7.40802C15.6754 7.06083 15.3514 6.73271 15.0293 6.42481Z" fill="#8B66B9"/>
<path d="M14.1364 9.6105C13.5202 9.63811 12.9143 9.67925 12.321 9.7332C11.9768 10.2116 11.6377 10.707 11.3052 11.218C11.8845 11.1465 12.4802 11.0879 13.0899 11.043C13.4343 10.5462 13.7838 10.0682 14.1364 9.6105Z" fill="#8B66B9"/>
<path d="M14.1364 9.6105C13.7838 10.0682 13.4343 10.5462 13.0899 11.043C14.0297 10.9738 15.0026 10.9373 16 10.9373C16.9974 10.9373 17.9703 10.9738 18.9101 11.043C18.5657 10.5462 18.2162 10.0682 17.8636 9.6105C17.2519 9.5831 16.63 9.56904 16 9.56904C15.37 9.56904 14.7481 9.5831 14.1364 9.6105Z" fill="#8B66B9"/>
<path d="M16 7.40802C15.3768 8.07466 14.7519 8.81156 14.1364 9.6105C14.7481 9.5831 15.37 9.56904 16 9.56904C16.63 9.56904 17.2519 9.5831 17.8636 9.6105C17.2481 8.81156 16.6232 8.07466 16 7.40802Z" fill="#8B66B9"/>
<path d="M17.8636 9.6105C18.4798 9.63811 19.0857 9.67925 19.679 9.7332C18.7992 8.51046 17.8868 7.39938 16.9706 6.42481C16.6486 6.73271 16.3245 7.06083 16 7.40802C16.6232 8.07466 17.2481 8.81156 17.8636 9.6105Z" fill="#8B66B9"/>
<path d="M24.3404 5.25117C24.1464 4.35923 23.7732 3.82399 23.3043 3.55777C22.8355 3.29155 22.1776 3.24133 21.2951 3.52208C20.4128 3.80281 19.383 4.39358 18.2713 5.28217C17.8441 5.62357 17.4093 6.00543 16.9706 6.42481C17.8868 7.39938 18.7992 8.51046 19.679 9.7332C21.1956 9.87111 22.6302 10.0927 23.9465 10.3857C24.0965 9.80243 24.2153 9.24113 24.3024 8.70664C24.529 7.31551 24.5343 6.14302 24.3404 5.25117Z" fill="#8B66B9"/>
<path d="M18.9101 11.043C19.5197 11.0879 20.1154 11.1465 20.6947 11.218C20.3623 10.707 20.0232 10.2116 19.679 9.7332C19.0857 9.67925 18.4798 9.63811 17.8636 9.6105C18.2162 10.0682 18.5657 10.5462 18.9101 11.043Z" fill="#8B66B9"/>
<path d="M19.679 9.7332C20.0232 10.2116 20.3623 10.707 20.6947 11.218C21.706 11.3428 22.6674 11.5066 23.566 11.704C23.7095 11.254 23.8364 10.8139 23.9465 10.3857C22.6302 10.0927 21.1956 9.87111 19.679 9.7332Z" fill="#8B66B9"/>
<path d="M18.9101 11.043C19.4409 11.8087 19.9595 12.6192 20.4581 13.4687C20.9568 14.3181 21.4112 15.165 21.8202 16C22.0855 15.4583 22.3316 14.9216 22.5583 14.3925C22.2766 13.8578 21.978 13.3211 21.663 12.7845C21.348 12.248 21.0247 11.7253 20.6947 11.218C20.1154 11.1465 19.5197 11.0879 18.9101 11.043Z" fill="#8B66B9"/>
<path d="M22.5583 14.3925C22.9541 13.4688 23.2906 12.5681 23.566 11.704C22.6674 11.5066 21.706 11.3428 20.6947 11.218C21.0247 11.7253 21.348 12.248 21.663 12.7845C21.978 13.3211 22.2766 13.8578 22.5583 14.3925Z" fill="#8B66B9"/>
<path d="M22.5583 14.3925C22.8421 14.9311 23.1088 15.4677 23.358 16C23.9948 14.6394 24.517 13.3067 24.9172 12.0391C24.485 11.9188 24.034 11.8068 23.566 11.704C23.2906 12.5681 22.9541 13.4688 22.5583 14.3925Z" fill="#8B66B9"/>
<path d="M26.5737 19.4245C27.912 18.9219 28.9471 18.3402 29.6355 17.7291C30.324 17.1179 30.6087 16.5325 30.6087 16C30.6087 15.4676 30.324 14.8821 29.6355 14.2709C28.9471 13.6598 27.912 13.0781 26.5737 12.5755C26.0595 12.3825 25.5058 12.203 24.9172 12.0391C24.517 13.3067 23.9948 14.6394 23.358 16C23.9948 17.3607 24.517 18.6933 24.9172 19.9609C25.5058 19.797 26.0595 19.6176 26.5737 19.4245Z" fill="#8B66B9"/>
<path d="M22.5583 17.6075C22.9541 18.5313 23.2906 19.4319 23.566 20.296C24.034 20.1932 24.485 20.0812 24.9172 19.9609C24.517 18.6933 23.9948 17.3607 23.358 16C23.1088 16.5323 22.8421 17.0689 22.5583 17.6075Z" fill="#8B66B9"/>
<path d="M20.6947 20.782C21.706 20.6572 22.6674 20.4934 23.566 20.296C23.2906 19.4319 22.9541 18.5313 22.5583 17.6075C22.2766 18.1422 21.978 18.6789 21.663 19.2155C21.348 19.7521 21.0247 20.2747 20.6947 20.782Z" fill="#8B66B9"/>
<path d="M21.8202 16C21.4112 16.835 20.9568 17.6819 20.4581 18.5313C19.9595 19.3808 19.4409 20.1913 18.9101 20.9571C19.5197 20.9122 20.1154 20.8535 20.6947 20.782C21.0247 20.2747 21.348 19.7521 21.663 19.2155C21.978 18.6789 22.2766 18.1422 22.5583 17.6075C22.3316 17.0784 22.0855 16.5417 21.8202 16Z" fill="#8B66B9"/>
<path d="M22.5583 17.6075C22.8421 17.0689 23.1088 16.5323 23.358 16C23.1088 15.4677 22.8421 14.9311 22.5583 14.3925C22.3316 14.9216 22.0855 15.4583 21.8202 16C22.0855 16.5417 22.3316 17.0784 22.5583 17.6075Z" fill="#8B66B9"/>
<path d="M18.9101 20.9571C18.5657 21.4539 18.2162 21.9319 17.8636 22.3895C18.4798 22.3619 19.0857 22.3208 19.679 22.2668C20.0232 21.7885 20.3623 21.293 20.6947 20.782C20.1154 20.8535 19.5197 20.9122 18.9101 20.9571Z" fill="#8B66B9"/>
<path d="M16.8525 17.5264C18.217 20.4941 20.0013 23.0747 21.7069 24.9327C21.8381 25.0617 21.9693 25.1391 22.1267 25.2424C22.1792 25.2682 22.2054 25.294 22.2054 25.3456C22.3104 25.7327 20.8147 26.7649 20.3424 26.8681C20.1587 26.9197 19.8438 26.6617 19.4765 26.1972C17.1936 23.3843 15.5667 20.107 14.3597 16.8038C13.52 19.2038 12.7853 21.6811 12.3392 23.694C12.2867 23.9263 12.1293 24.0295 11.8406 24.0295C11.2109 24.0295 10.1088 23.4617 10.1088 22.894C10.1088 18.5328 12.759 7.38463 13.8611 7.38463C14.3859 7.38463 16.144 8.05558 16.144 8.44267C16.144 8.49428 16.1178 8.5459 16.0915 8.5717C15.9603 8.72654 15.8554 8.82976 15.7766 9.0104C14.7795 10.7394 13.5987 15.1264 12.864 18.7909C13.5725 16.5457 14.3859 14.3006 15.3306 12.1329C16.0128 10.5588 16.8787 9.16524 17.6922 8.26203C18.2957 7.61688 19.0566 7.2814 19.7914 7.2814C24.4621 7.2814 21.9955 17.5522 17.0624 17.5522C16.9837 17.5522 16.9312 17.5522 16.8525 17.5264ZM14.7008 15.8748C15.1731 15.7974 15.7504 15.8748 16.3539 16.3135C19.3978 16.3135 20.9722 8.64912 18.9779 8.64912C18.1907 8.64912 17.1149 10.0684 16.0653 12.4426C15.5667 13.5781 15.1206 14.7393 14.7008 15.8748Z" fill="black"/>
</g>
<defs>
<clipPath id="clip0_931_28">
<rect width="32" height="28" fill="white" transform="translate(0 2)"/>
</clipPath>
</defs>
</svg>
