<svg width="32" height="32" viewBox="0 0 32 32" fill="none" xmlns="http://www.w3.org/2000/svg">
<g clip-path="url(#clip0_931_34)">
<path d="M20.8672 2.2207C21.97 1.86985 23.0715 1.84582 24 2.37305C24.9285 2.9003 25.4587 3.85014 25.7012 4.96484C25.9436 6.07968 25.9181 7.43525 25.6758 8.92285C25.5819 9.49886 25.4548 10.1009 25.2949 10.7227C25.9224 10.8973 26.5162 11.0888 27.0703 11.2969C28.5012 11.8342 29.7069 12.4911 30.5674 13.2549C31.4278 14.0188 32 14.9455 32 16C32 17.0545 31.4278 17.9812 30.5674 18.7451C29.7069 19.5089 28.5012 20.1658 27.0703 20.7031C26.5162 20.9112 25.9224 21.1027 25.2949 21.2773C25.4548 21.8991 25.5819 22.5011 25.6758 23.0771C25.9181 24.5648 25.9436 25.9203 25.7012 27.0352C25.4587 28.1499 24.9285 29.0997 24 29.627C23.0715 30.1541 21.9699 30.131 20.8672 29.7803C19.7642 29.4293 18.5824 28.7295 17.3936 27.7793C16.9334 27.4115 16.4674 27.0026 16 26.5557C15.5326 27.0026 15.0666 27.4115 14.6064 27.7793C13.4176 28.7295 12.2358 29.4293 11.1328 29.7803C10.0301 30.131 8.92847 30.1541 8 29.627C7.0715 29.0997 6.54128 28.1499 6.29883 27.0352C6.05636 25.9203 6.08189 24.5648 6.32422 23.0771C6.41806 22.5011 6.54516 21.8991 6.70508 21.2773C6.07758 21.1027 5.48383 20.9112 4.92969 20.7031C3.49879 20.1658 2.29307 19.5089 1.43262 18.7451C0.572175 17.9812 0 17.0545 0 16C3.42631e-06 14.9455 0.572178 14.0188 1.43262 13.2549C2.29307 12.4911 3.4988 11.8342 4.92969 11.2969C5.48383 11.0888 6.07758 10.8973 6.70508 10.7227C6.54516 10.1009 6.41806 9.49886 6.32422 8.92285C6.08189 7.43525 6.05636 6.07968 6.29883 4.96484C6.54128 3.85014 7.0715 2.90029 8 2.37305C8.92855 1.84582 10.03 1.86985 11.1328 2.2207C12.2358 2.57163 13.4176 3.27045 14.6064 4.2207C15.0666 4.58854 15.5326 4.99738 16 5.44434C16.4674 4.99738 16.9334 4.58854 17.3936 4.2207C18.5824 3.27045 19.7642 2.57163 20.8672 2.2207ZM19.791 7.28125C19.0565 7.28136 18.2958 7.61685 17.6924 8.26172C16.8789 9.16493 16.0123 10.5586 15.3301 12.1328C14.3855 14.3005 13.5727 16.5459 12.8643 18.791C13.5989 15.1268 14.7793 10.74 15.7764 9.01074C15.8551 8.8301 15.9606 8.72612 16.0918 8.57129C16.1179 8.54537 16.1436 8.49377 16.1436 8.44238C16.1427 8.0553 14.3863 7.38494 13.8613 7.38477C12.7593 7.38477 10.1086 18.532 10.1084 22.8936C10.1084 23.4613 11.2111 24.0293 11.8408 24.0293C12.1292 24.0293 12.2863 23.9263 12.3389 23.6943C12.7849 21.6815 13.5197 19.2037 14.3594 16.8037C15.5664 20.1069 17.1937 23.3844 19.4766 26.1973C19.8439 26.6617 20.1591 26.9198 20.3428 26.8682C20.8155 26.7645 22.3099 25.7327 22.2051 25.3457C22.2051 25.2941 22.1794 25.268 22.127 25.2422C21.9695 25.139 21.8382 25.0616 21.707 24.9326C20.0014 23.0746 18.217 20.494 16.8525 17.5264C16.9312 17.5522 16.9838 17.5518 17.0625 17.5518C21.9956 17.5516 24.4617 7.28125 19.791 7.28125ZM18.9775 8.64941C20.9718 8.64941 19.3974 16.3135 16.3535 16.3135C15.7502 15.8751 15.1734 15.7977 14.7012 15.875C15.121 14.7395 15.5669 13.5778 16.0654 12.4424C17.1148 10.0688 18.1904 8.64988 18.9775 8.64941Z" fill="black"/>
</g>
<defs>
<clipPath id="clip0_931_34">
<rect width="32" height="28" fill="white" transform="translate(0 2)"/>
</clipPath>
</defs>
</svg>
