<svg width="192" height="192" viewBox="0 0 192 192" fill="none" xmlns="http://www.w3.org/2000/svg">
<rect width="192" height="192" fill="#D9D9D9"/>
<g clip-path="url(#clip0_929_53)">
<path d="M55.3341 73.6271C55.8176 75.5303 56.3692 77.4766 56.9874 79.4589C58.878 78.926 60.8511 78.4302 62.8986 77.9748C62.271 75.982 61.7157 74.0331 61.234 72.1366C59.2005 72.5948 57.2315 73.0924 55.3341 73.6271Z" fill="#8B66B9"/>
<path fill-rule="evenodd" clip-rule="evenodd" d="M36.3446 89.3426C33.3327 92.0493 32.087 94.642 32.087 97C32.087 99.3579 33.3327 101.951 36.3446 104.657C39.3562 107.364 43.885 109.94 49.7402 112.166C51.9898 113.021 54.4122 113.815 56.9874 114.541C56.3692 116.523 55.8176 118.47 55.3341 120.373C52.5888 119.599 49.9934 118.748 47.569 117.826C41.3074 115.446 36.0306 112.539 32.2659 109.155C28.5014 105.772 26 101.67 26 97C26 92.33 28.5014 88.2276 32.2659 84.8446C36.0306 81.4614 41.3074 78.5535 47.569 76.1735C49.9934 75.252 52.5888 74.4008 55.3341 73.6271C55.8176 75.5303 56.3692 77.4766 56.9874 79.4589C54.4122 80.1847 51.9898 80.9794 49.7402 81.8344C43.885 84.06 39.3562 86.6362 36.3446 89.3426ZM96 50.2543C94.5861 51.6227 93.1687 53.0714 91.7533 54.5955C89.8343 52.7383 87.9318 51.0472 86.0632 49.5353C81.1994 45.6001 76.694 42.9838 72.8337 41.7406C68.9731 40.4973 66.0947 40.7197 64.0435 41.8987C61.9922 43.0776 60.3595 45.448 59.5108 49.398C58.6622 53.3476 58.6855 58.5401 59.677 64.7008C60.0579 67.0678 60.5778 69.5535 61.234 72.1366C59.2005 72.5948 57.2315 73.0924 55.3341 73.6271C54.6345 70.8735 54.0772 68.2103 53.6667 65.6594C52.6064 59.0712 52.4977 53.0679 53.5585 48.1306C54.6192 43.1937 56.9374 38.9859 61 36.6509C65.0625 34.316 69.8822 34.4213 74.7073 35.9752C79.5329 37.5293 84.701 40.6247 89.9022 44.8329C91.9161 46.4623 93.9543 48.2743 96 50.2543ZM136.666 73.6271C134.768 73.0924 132.799 72.5948 130.766 72.1366C131.422 69.5535 131.942 67.0678 132.323 64.7008C133.314 58.54 133.338 53.3476 132.489 49.398C131.64 45.448 130.008 43.0776 127.957 41.8986C125.905 40.7196 123.027 40.4973 119.166 41.7406C115.306 42.9838 110.801 45.6001 105.937 49.5352C104.068 51.0472 102.166 52.7383 100.247 54.5955C98.8312 53.0714 97.4138 51.6227 96 50.2543C98.0456 48.2743 100.084 46.4623 102.098 44.8329C107.299 40.6246 112.467 37.5293 117.293 35.9752C122.118 34.4212 126.937 34.3159 131 36.6509C135.063 38.9858 137.381 43.1937 138.441 48.1306C139.502 53.0679 139.394 59.0711 138.333 65.6594C137.923 68.2103 137.365 70.8735 136.666 73.6271ZM136.666 120.373C136.182 118.47 135.631 116.523 135.013 114.541C137.588 113.815 140.01 113.021 142.26 112.166C148.115 109.94 152.644 107.364 155.655 104.657C158.667 101.951 159.913 99.3579 159.913 97C159.913 94.642 158.667 92.0493 155.655 89.3426C152.644 86.6362 148.115 84.06 142.26 81.8344C140.01 80.9794 137.588 80.1847 135.013 79.4589C135.631 77.4766 136.182 75.5303 136.666 73.6271C139.411 74.4008 142.007 75.252 144.431 76.1735C150.693 78.5535 155.969 81.4614 159.734 84.8446C163.499 88.2276 166 92.33 166 97C166 101.67 163.499 105.772 159.734 109.155C155.969 112.539 150.693 115.446 144.431 117.826C142.007 118.748 139.411 119.599 136.666 120.373ZM96 143.746C97.4138 142.377 98.8312 140.929 100.247 139.404C102.166 141.262 104.068 142.953 105.937 144.465C110.801 148.4 115.306 151.016 119.166 152.259C123.027 153.503 125.905 153.28 127.956 152.101C130.008 150.922 131.64 148.552 132.489 144.602C133.338 140.652 133.314 135.46 132.323 129.299C131.942 126.932 131.422 124.446 130.766 121.863C132.799 121.405 134.768 120.908 136.666 120.373C137.365 123.126 137.923 125.79 138.333 128.341C139.394 134.929 139.502 140.932 138.441 145.869C137.381 150.806 135.063 155.014 131 157.349C126.937 159.684 122.118 159.579 117.293 158.025C112.467 156.471 107.299 153.375 102.098 149.167C100.084 147.538 98.0456 145.726 96 143.746ZM61.234 121.863C60.5778 124.446 60.0579 126.932 59.677 129.299C58.6855 135.46 58.6622 140.652 59.5108 144.602C60.3595 148.552 61.9922 150.922 64.0435 152.101C66.0947 153.28 68.9731 153.503 72.8337 152.259C76.694 151.016 81.1994 148.4 86.0632 144.465C87.9318 142.953 89.8343 141.262 91.7533 139.404C93.1687 140.929 94.5861 142.377 96 143.746C93.9543 145.726 91.9161 147.538 89.9022 149.167C84.701 153.375 79.5329 156.471 74.7073 158.025C69.8822 159.579 65.0625 159.684 61 157.349C56.9374 155.014 54.6192 150.806 53.5585 145.869C52.4977 140.932 52.6064 134.929 53.6667 128.341C54.0772 125.79 54.6345 123.126 55.3341 120.373C57.2315 120.907 59.2005 121.405 61.234 121.863Z" fill="#8B66B9"/>
<path d="M62.8986 116.025C60.8511 115.57 58.878 115.074 56.9874 114.541C56.3692 116.523 55.8176 118.47 55.3341 120.373C57.2315 120.907 59.2005 121.405 61.234 121.863C61.7158 119.967 62.271 118.018 62.8986 116.025Z" fill="#8B66B9"/>
<path d="M136.666 120.373C136.182 118.47 135.631 116.523 135.013 114.541C133.122 115.074 131.149 115.57 129.101 116.025C129.729 118.018 130.284 119.967 130.766 121.863C132.799 121.405 134.768 120.908 136.666 120.373Z" fill="#8B66B9"/>
<path d="M136.666 73.6271C134.768 73.0924 132.799 72.5948 130.766 72.1366C130.284 74.033 129.729 75.982 129.101 77.9748C131.149 78.4302 133.122 78.926 135.013 79.4589C135.631 77.4766 136.182 75.5303 136.666 73.6271Z" fill="#8B66B9"/>
<path d="M96 143.746C97.4138 142.377 98.8312 140.929 100.247 139.404C98.8377 138.041 97.4198 136.588 96 135.05C94.5801 136.588 93.1622 138.041 91.7533 139.404C93.1687 140.929 94.5861 142.377 96 143.746Z" fill="#8B66B9"/>
<path d="M100.247 54.5955C98.8312 53.0714 97.4138 51.6227 96 50.2543C94.5861 51.6227 93.1687 53.0714 91.7533 54.5955C93.1623 55.9591 94.5801 57.4122 96 58.9497C97.4198 57.4122 98.8377 55.9591 100.247 54.5955Z" fill="#8B66B9"/>
<path d="M105.937 144.465C110.801 148.4 115.306 151.016 119.166 152.259C123.027 153.503 125.905 153.28 127.956 152.101C130.008 150.922 131.64 148.552 132.489 144.602C133.338 140.652 133.314 135.46 132.323 129.299C131.942 126.932 131.422 124.446 130.766 121.863C125.007 123.161 118.731 124.142 112.096 124.753C108.247 130.168 104.255 135.088 100.247 139.404C102.166 141.262 104.068 142.953 105.937 144.465Z" fill="#8B66B9"/>
<path d="M59.677 129.299C58.6855 135.46 58.6622 140.652 59.5108 144.602C60.3595 148.552 61.9922 150.922 64.0435 152.101C66.0947 153.28 68.9731 153.503 72.8337 152.259C76.694 151.016 81.1994 148.4 86.0632 144.465C87.9318 142.953 89.8343 141.262 91.7533 139.404C87.7452 135.088 83.7532 130.168 79.9043 124.753C73.2692 124.142 66.9927 123.161 61.234 121.863C60.5778 124.446 60.0579 126.932 59.677 129.299Z" fill="#8B66B9"/>
<path d="M87.8467 125.296C85.1507 125.174 82.5001 124.992 79.9043 124.753C83.7532 130.168 87.7452 135.088 91.7533 139.404C93.1622 138.041 94.5801 136.588 96 135.05C93.2736 132.098 90.5397 128.835 87.8467 125.296Z" fill="#8B66B9"/>
<path d="M112.096 124.753C109.5 124.992 106.849 125.174 104.153 125.296C101.46 128.835 98.7263 132.098 96 135.05C97.4198 136.588 98.8377 138.041 100.247 139.404C104.255 135.088 108.247 130.168 112.096 124.753Z" fill="#8B66B9"/>
<path d="M70.5367 97C72.3258 100.698 74.3138 104.448 76.4956 108.21C78.6773 111.972 80.9461 115.561 83.2683 118.953C87.3797 119.259 91.6365 119.42 96 119.42C100.364 119.42 104.62 119.259 108.732 118.953C111.054 115.561 113.323 111.972 115.504 108.21C117.686 104.448 119.674 100.698 121.463 97C119.674 93.3022 117.686 89.5517 115.504 85.7898C113.323 82.0278 111.054 78.4387 108.732 75.0473C104.62 74.7409 100.364 74.5795 96 74.5795C91.6365 74.5795 87.3797 74.7409 83.2683 75.0474C80.9461 78.4387 78.6773 82.0278 76.4956 85.7897C74.3138 89.5517 72.3258 93.3022 70.5367 97Z" fill="#8B66B9"/>
<path d="M87.8467 125.296C90.5397 128.835 93.2736 132.098 96 135.05C98.7263 132.098 101.46 128.835 104.153 125.296C101.477 125.418 98.7562 125.48 96 125.48C93.2438 125.48 90.5229 125.418 87.8467 125.296Z" fill="#8B66B9"/>
<path d="M116.539 118.177C115.085 120.44 113.601 122.635 112.096 124.753C118.731 124.142 125.007 123.161 130.766 121.863C130.284 119.967 129.729 118.018 129.101 116.025C125.17 116.899 120.964 117.625 116.539 118.177Z" fill="#8B66B9"/>
<path d="M108.732 118.953C104.62 119.259 100.364 119.42 96 119.42C91.6365 119.42 87.3797 119.259 83.2683 118.953C84.7749 121.153 86.3041 123.27 87.8467 125.296C90.5229 125.418 93.2438 125.48 96 125.48C98.7562 125.48 101.477 125.418 104.153 125.296C105.696 123.27 107.225 121.153 108.732 118.953Z" fill="#8B66B9"/>
<path d="M79.9043 124.753C78.3986 122.635 76.9148 120.44 75.4605 118.177C71.036 117.625 66.83 116.899 62.8986 116.025C62.271 118.018 61.7158 119.967 61.234 121.863C66.9927 123.161 73.2692 124.142 79.9043 124.753Z" fill="#8B66B9"/>
<path d="M67.3072 104.119C65.5757 108.21 64.1037 112.199 62.8986 116.025C66.83 116.899 71.036 117.625 75.4605 118.177C74.0168 115.931 72.6022 113.616 71.2241 111.24C69.846 108.864 68.5397 106.487 67.3072 104.119Z" fill="#8B66B9"/>
<path d="M71.2241 111.24C72.6022 113.616 74.0168 115.931 75.4605 118.177C77.9949 118.494 80.601 118.754 83.2683 118.953C80.9461 115.561 78.6773 111.972 76.4956 108.21C74.3138 104.448 72.3258 100.698 70.5367 97C69.376 99.399 68.2991 101.776 67.3072 104.119C68.5397 106.487 69.846 108.864 71.2241 111.24Z" fill="#8B66B9"/>
<path d="M83.2683 118.953C80.601 118.754 77.9949 118.494 75.4605 118.177C76.9148 120.44 78.3986 122.635 79.9043 124.753C82.5001 124.992 85.1507 125.174 87.8467 125.296C86.3041 123.27 84.7749 121.153 83.2683 118.953Z" fill="#8B66B9"/>
<path d="M63.8088 97C61.0225 103.026 58.7379 108.928 56.9874 114.541C58.878 115.074 60.8511 115.57 62.8986 116.025C64.1037 112.199 65.5757 108.21 67.3072 104.119C66.0656 101.734 64.8988 99.3573 63.8088 97Z" fill="#8B66B9"/>
<path d="M36.3446 89.3426C33.3327 92.0493 32.087 94.642 32.087 97C32.087 99.3579 33.3327 101.951 36.3446 104.657C39.3562 107.364 43.885 109.94 49.7402 112.166C51.9898 113.021 54.4122 113.815 56.9874 114.541C58.7379 108.928 61.0225 103.026 63.8088 97C61.0225 90.9742 58.7379 85.0724 56.9874 79.4589C54.4122 80.1847 51.9898 80.9794 49.7402 81.8344C43.885 84.06 39.3562 86.6362 36.3446 89.3426Z" fill="#8B66B9"/>
<path d="M56.9874 79.4589C58.7379 85.0724 61.0225 90.9742 63.8088 97C64.8988 94.6427 66.0656 92.2664 67.3072 89.8809C65.5757 85.7902 64.1037 81.8014 62.8986 77.9748C60.8511 78.4302 58.878 78.926 56.9874 79.4589Z" fill="#8B66B9"/>
<path d="M67.3072 89.8809C66.0656 92.2664 64.8988 94.6427 63.8088 97C64.8988 99.3573 66.0656 101.734 67.3072 104.119C68.2991 101.776 69.376 99.399 70.5367 97C69.376 94.601 68.2991 92.2242 67.3072 89.8809Z" fill="#8B66B9"/>
<path d="M83.2683 75.0474C80.601 75.2462 77.9949 75.5061 75.4605 75.8226C74.0168 78.0691 72.6022 80.3837 71.2241 82.76C69.846 85.1362 68.5397 87.5131 67.3072 89.8809C68.2991 92.2242 69.376 94.601 70.5367 97C72.3258 93.3022 74.3138 89.5517 76.4956 85.7897C78.6773 82.0278 80.9461 78.4387 83.2683 75.0474Z" fill="#8B66B9"/>
<path d="M62.8986 77.9748C64.1037 81.8014 65.5757 85.7902 67.3072 89.8809C68.5397 87.5131 69.846 85.1362 71.2241 82.76C72.6022 80.3837 74.0168 78.0691 75.4605 75.8226C71.036 76.3752 66.83 77.1005 62.8986 77.9748Z" fill="#8B66B9"/>
<path d="M75.4605 75.8226C76.9148 73.5595 78.3986 71.3654 79.9044 69.247C73.2692 69.8577 66.9927 70.839 61.234 72.1366C61.7157 74.0331 62.271 75.982 62.8986 77.9748C66.83 77.1005 71.036 76.3752 75.4605 75.8226Z" fill="#8B66B9"/>
<path d="M72.8337 41.7406C68.9731 40.4973 66.0947 40.7197 64.0435 41.8987C61.9922 43.0776 60.3595 45.448 59.5108 49.398C58.6622 53.3476 58.6855 58.5401 59.677 64.7008C60.0579 67.0678 60.5778 69.5535 61.234 72.1366C66.9927 70.839 73.2692 69.8577 79.9044 69.247C83.7532 63.832 87.7452 58.9115 91.7533 54.5955C89.8343 52.7383 87.9318 51.0472 86.0632 49.5353C81.1994 45.6001 76.694 42.9838 72.8337 41.7406Z" fill="#8B66B9"/>
<path d="M91.7533 54.5955C87.7452 58.9115 83.7532 63.832 79.9044 69.247C82.5001 69.008 85.1507 68.8258 87.8467 68.7036C90.5397 65.1654 93.2736 61.902 96 58.9497C94.5801 57.4122 93.1623 55.9591 91.7533 54.5955Z" fill="#8B66B9"/>
<path d="M87.8467 68.7036C85.1507 68.8258 82.5001 69.008 79.9044 69.247C78.3986 71.3654 76.9148 73.5595 75.4605 75.8226C77.9949 75.5061 80.601 75.2462 83.2683 75.0474C84.775 72.8472 86.3041 70.7303 87.8467 68.7036Z" fill="#8B66B9"/>
<path d="M87.8467 68.7036C86.3041 70.7303 84.775 72.8472 83.2683 75.0474C87.3797 74.7409 91.6365 74.5795 96 74.5795C100.364 74.5795 104.62 74.7409 108.732 75.0473C107.225 72.8472 105.696 70.7303 104.153 68.7036C101.477 68.5822 98.7562 68.52 96 68.52C93.2438 68.52 90.5229 68.5822 87.8467 68.7036Z" fill="#8B66B9"/>
<path d="M96 58.9497C93.2736 61.902 90.5397 65.1654 87.8467 68.7036C90.5229 68.5822 93.2438 68.52 96 68.52C98.7562 68.52 101.477 68.5822 104.153 68.7036C101.46 65.1654 98.7263 61.902 96 58.9497Z" fill="#8B66B9"/>
<path d="M104.153 68.7036C106.849 68.8258 109.5 69.008 112.096 69.247C108.247 63.832 104.255 58.9115 100.247 54.5955C98.8377 55.9591 97.4198 57.4122 96 58.9497C98.7263 61.902 101.46 65.1654 104.153 68.7036Z" fill="#8B66B9"/>
<path d="M132.489 49.398C131.64 45.448 130.008 43.0776 127.957 41.8986C125.905 40.7196 123.027 40.4973 119.166 41.7406C115.306 42.9838 110.801 45.6001 105.937 49.5352C104.068 51.0472 102.166 52.7383 100.247 54.5955C104.255 58.9115 108.247 63.832 112.096 69.247C118.731 69.8577 125.007 70.839 130.766 72.1366C131.422 69.5535 131.942 67.0678 132.323 64.7008C133.314 58.54 133.338 53.3476 132.489 49.398Z" fill="#8B66B9"/>
<path d="M108.732 75.0473C111.399 75.2462 114.005 75.5061 116.539 75.8226C115.085 73.5594 113.601 71.3654 112.096 69.247C109.5 69.008 106.849 68.8258 104.153 68.7036C105.696 70.7303 107.225 72.8472 108.732 75.0473Z" fill="#8B66B9"/>
<path d="M112.096 69.247C113.601 71.3654 115.085 73.5594 116.539 75.8226C120.964 76.3752 125.17 77.1005 129.101 77.9748C129.729 75.982 130.284 74.033 130.766 72.1366C125.007 70.839 118.731 69.8577 112.096 69.247Z" fill="#8B66B9"/>
<path d="M108.732 75.0473C111.054 78.4387 113.323 82.0278 115.504 85.7898C117.686 89.5517 119.674 93.3022 121.463 97C122.624 94.601 123.701 92.2242 124.693 89.8809C123.46 87.5131 122.154 85.1362 120.776 82.76C119.398 80.3838 117.983 78.0691 116.539 75.8226C114.005 75.5061 111.399 75.2462 108.732 75.0473Z" fill="#8B66B9"/>
<path d="M124.693 89.8809C126.424 85.7902 127.896 81.8014 129.101 77.9748C125.17 77.1005 120.964 76.3752 116.539 75.8226C117.983 78.0691 119.398 80.3838 120.776 82.76C122.154 85.1362 123.46 87.5131 124.693 89.8809Z" fill="#8B66B9"/>
<path d="M124.693 89.8809C125.934 92.2664 127.101 94.6426 128.191 97C130.977 90.9742 133.262 85.0724 135.013 79.4589C133.122 78.926 131.149 78.4302 129.101 77.9748C127.896 81.8014 126.424 85.7902 124.693 89.8809Z" fill="#8B66B9"/>
<path d="M142.26 112.166C148.115 109.94 152.644 107.364 155.655 104.657C158.667 101.951 159.913 99.3579 159.913 97C159.913 94.642 158.667 92.0493 155.655 89.3426C152.644 86.6362 148.115 84.06 142.26 81.8344C140.01 80.9794 137.588 80.1847 135.013 79.4589C133.262 85.0724 130.977 90.9742 128.191 97C130.977 103.026 133.262 108.928 135.013 114.541C137.588 113.815 140.01 113.021 142.26 112.166Z" fill="#8B66B9"/>
<path d="M124.693 104.119C126.424 108.21 127.896 112.199 129.101 116.025C131.149 115.57 133.122 115.074 135.013 114.541C133.262 108.928 130.977 103.026 128.191 97C127.101 99.3573 125.934 101.734 124.693 104.119Z" fill="#8B66B9"/>
<path d="M116.539 118.177C120.964 117.625 125.17 116.899 129.101 116.025C127.896 112.199 126.424 108.21 124.693 104.119C123.46 106.487 122.154 108.864 120.776 111.24C119.398 113.616 117.983 115.931 116.539 118.177Z" fill="#8B66B9"/>
<path d="M121.463 97C119.674 100.698 117.686 104.448 115.504 108.21C113.323 111.972 111.054 115.561 108.732 118.953C111.399 118.754 114.005 118.494 116.539 118.177C117.983 115.931 119.398 113.616 120.776 111.24C122.154 108.864 123.46 106.487 124.693 104.119C123.701 101.776 122.624 99.3989 121.463 97Z" fill="#8B66B9"/>
<path d="M124.693 104.119C125.934 101.734 127.101 99.3573 128.191 97C127.101 94.6426 125.934 92.2664 124.693 89.8809C123.701 92.2242 122.624 94.601 121.463 97C122.624 99.3989 123.701 101.776 124.693 104.119Z" fill="#8B66B9"/>
<path d="M108.732 118.953C107.225 121.153 105.696 123.27 104.153 125.296C106.849 125.174 109.5 124.992 112.096 124.753C113.601 122.635 115.085 120.44 116.539 118.177C114.005 118.494 111.399 118.754 108.732 118.953Z" fill="#8B66B9"/>
<path d="M98.2684 98.573C102.976 108.985 109.133 118.039 115.018 124.558C115.471 125.01 115.923 125.282 116.467 125.644C116.648 125.735 116.738 125.825 116.738 126.006C117.1 127.364 111.94 130.986 110.31 131.348C109.676 131.529 108.59 130.624 107.322 128.994C99.4454 119.125 93.832 107.627 89.6673 96.0379C86.77 104.458 84.2349 113.15 82.6958 120.212C82.5147 121.027 81.9715 121.389 80.9756 121.389C78.8026 121.389 75 119.397 75 117.405C75 102.104 84.1444 62.9913 87.947 62.9913C89.7578 62.9913 95.8239 65.3453 95.8239 66.7034C95.8239 66.8845 95.7334 67.0655 95.6428 67.1561C95.1901 67.6993 94.828 68.0615 94.5564 68.6952C91.1159 74.7613 87.0416 90.1529 84.5066 103.009C86.9511 95.1325 89.7578 87.2557 93.0172 79.6504C95.3712 74.1276 98.359 69.2385 101.166 66.0696C103.248 63.8062 105.874 62.6292 108.409 62.6292C124.525 62.6292 116.014 98.6635 98.9927 98.6635C98.7211 98.6635 98.5401 98.6635 98.2684 98.573ZM90.8443 92.7785C92.474 92.5069 94.4658 92.7785 96.5482 94.3177C107.051 94.3177 112.483 67.4277 105.602 67.4277C102.886 67.4277 99.1738 72.4073 95.5523 80.7369C93.832 84.7206 92.2929 88.7948 90.8443 92.7785Z" fill="black"/>
</g>
<defs>
<clipPath id="clip0_929_53">
<rect width="140" height="125" fill="white" transform="translate(26 34)"/>
</clipPath>
</defs>
</svg>
