<svg width="146" height="47" viewBox="0 0 146 47" fill="none" xmlns="http://www.w3.org/2000/svg">
<g clip-path="url(#clip0_902_51)">
<path d="M25 26.6994C27.4613 26.6994 29.4565 24.7042 29.4565 22.2429C29.4565 19.7816 27.4613 17.7864 25 17.7864C22.5387 17.7864 20.5435 19.7816 20.5435 22.2429C20.5435 24.7042 22.5387 26.6994 25 26.6994Z" fill="#8B66B9"/>
<path fill-rule="evenodd" clip-rule="evenodd" d="M3.69451 19.4958C2.61882 20.4668 2.17391 21.397 2.17391 22.2429C2.17391 23.0888 2.61882 24.019 3.69451 24.99C4.77008 25.961 6.3875 26.8852 8.47864 27.6836C12.6535 29.2777 18.4943 30.2864 25 30.2864C31.5057 30.2864 37.3465 29.2777 41.5214 27.6836C43.6125 26.8852 45.2299 25.961 46.3055 24.99C47.3812 24.019 47.8261 23.0888 47.8261 22.2429C47.8261 21.397 47.3812 20.4668 46.3055 19.4958C45.2299 18.5248 43.6125 17.6006 41.5214 16.8022C37.3465 15.2081 31.5057 14.1994 25 14.1994C18.4943 14.1994 12.6535 15.2081 8.47864 16.8022C6.3875 17.6006 4.77008 18.5248 3.69451 19.4958ZM7.70321 14.7713C12.1832 13.0607 18.2988 12.0255 25 12.0255C31.7011 12.0255 37.8168 13.0607 42.2968 14.7713C44.5331 15.6251 46.4176 16.6683 47.7622 17.8821C49.1066 19.0957 50 20.5675 50 22.2429C50 23.9183 49.1066 25.3901 47.7622 26.6037C46.4176 27.8175 44.5331 28.8607 42.2968 29.7146C37.8168 31.4251 31.7011 32.4603 25 32.4603C18.2988 32.4603 12.1832 31.4251 7.70321 29.7146C5.46694 28.8607 3.58237 27.8175 2.23781 26.6037C0.893374 25.3901 0 23.9183 0 22.2429C0 20.5675 0.893374 19.0957 2.23781 17.8821C3.58237 16.6683 5.46694 15.6251 7.70321 14.7713Z" fill="#8B66B9"/>
<path fill-rule="evenodd" clip-rule="evenodd" d="M16.7263 2.41825C15.3475 1.97219 14.3195 2.05197 13.5869 2.47494C12.8543 2.89791 12.2713 3.74829 11.9682 5.16539C11.6651 6.58233 11.6734 8.44516 12.0275 10.6554C12.7344 15.0679 14.7813 20.6306 18.0341 26.2647C21.287 31.8987 25.081 36.4527 28.5489 39.2712C30.2859 40.683 31.895 41.6216 33.2736 42.0676C34.6524 42.5136 35.6804 42.4339 36.413 42.0109C37.1456 41.5879 37.7287 40.7375 38.0318 39.3204C38.3349 37.9035 38.3266 36.0407 37.9725 33.8305C37.2655 29.4179 35.2187 23.8552 31.9658 18.2212C28.713 12.5871 24.919 8.03312 21.4511 5.21463C19.7141 3.80286 18.105 2.86425 16.7263 2.41825ZM22.8222 3.52763C26.5436 6.55214 30.4979 11.3308 33.8485 17.1342C37.1991 22.9376 39.3604 28.7515 40.119 33.4866C40.4977 35.8501 40.5365 38.0038 40.1577 39.7751C39.7788 41.5463 38.9509 43.0559 37.5 43.8935C36.0491 44.7312 34.3278 44.6934 32.6045 44.1359C30.8811 43.5784 29.0353 42.4679 27.1778 40.9582C23.4564 37.9337 19.502 33.155 16.1515 27.3516C12.8009 21.5482 10.6396 15.7343 9.88096 10.9993C9.50228 8.63569 9.46346 6.48199 9.84232 4.71069C10.2212 2.93954 11.0491 1.42996 12.5 0.592277C13.9509 -0.245406 15.6722 -0.207619 17.3955 0.349875C19.1189 0.907417 20.9646 2.01789 22.8222 3.52763Z" fill="#8B66B9"/>
<path fill-rule="evenodd" clip-rule="evenodd" d="M38.0318 5.16537C37.7287 3.74827 37.1456 2.89789 36.413 2.47493C35.6804 2.05196 34.6524 1.97218 33.2736 2.41823C31.895 2.86423 30.2859 3.80285 28.5489 5.21461C25.081 8.0331 21.287 12.5871 18.0341 18.2212C14.7813 23.8552 12.7344 29.4179 12.0275 33.8304C11.6734 36.0406 11.6651 37.9035 11.9682 39.3204C12.2713 40.7375 12.8543 41.5879 13.5869 42.0109C14.3195 42.4338 15.3475 42.5136 16.7263 42.0676C18.105 41.6216 19.7141 40.6829 21.4511 39.2712C24.919 36.4527 28.713 31.8987 31.9658 26.2646C35.2187 20.6306 37.2655 15.0679 37.9725 10.6554C38.3266 8.44515 38.3349 6.58232 38.0318 5.16537ZM40.119 10.9993C39.3604 15.7343 37.1991 21.5482 33.8485 27.3516C30.4979 33.155 26.5436 37.9337 22.8222 40.9582C20.9646 42.4679 19.1189 43.5784 17.3955 44.1359C15.6722 44.6934 13.9509 44.7312 12.5 43.8935C11.0491 43.0558 10.2212 41.5463 9.84232 39.7751C9.46346 38.0038 9.50228 35.8501 9.88096 33.4865C10.6396 28.7515 12.8009 22.9376 16.1515 17.1342C19.502 11.3308 23.4564 6.55213 27.1778 3.52761C29.0353 2.01788 30.8811 0.907403 32.6045 0.349861C34.3278 -0.207633 36.0491 -0.24542 37.5 0.592263C38.9509 1.42995 39.7788 2.93953 40.1577 4.71067C40.5365 6.48198 40.4977 8.63568 40.119 10.9993Z" fill="#8B66B9"/>
</g>
<path d="M70.332 24.668C72.464 29.383 75.252 33.483 77.917 36.435C78.122 36.64 78.327 36.763 78.573 36.927C78.655 36.968 78.696 37.009 78.696 37.091C78.86 37.706 76.523 39.346 75.785 39.51C75.498 39.592 75.006 39.182 74.432 38.444C70.865 33.975 68.323 28.768 66.437 23.52C65.125 27.333 63.977 31.269 63.28 34.467C63.198 34.836 62.952 35 62.501 35C61.517 35 59.795 34.098 59.795 33.196C59.795 26.267 63.936 8.555 65.658 8.555C66.478 8.555 69.225 9.621 69.225 10.236C69.225 10.318 69.184 10.4 69.143 10.441C68.938 10.687 68.774 10.851 68.651 11.138C67.093 13.885 65.248 20.855 64.1 26.677C65.207 23.11 66.478 19.543 67.954 16.099C69.02 13.598 70.373 11.384 71.644 9.949C72.587 8.924 73.776 8.391 74.924 8.391C82.222 8.391 78.368 24.709 70.66 24.709C70.537 24.709 70.455 24.709 70.332 24.668ZM66.97 22.044C67.708 21.921 68.61 22.044 69.553 22.741C74.309 22.741 76.769 10.564 73.653 10.564C72.423 10.564 70.742 12.819 69.102 16.591C68.323 18.395 67.626 20.24 66.97 22.044ZM82.5096 35C72.6286 35 78.1636 18.477 84.0266 18.477C85.5846 18.477 88.3316 20.568 88.3316 22.372C88.3316 26.185 83.8626 29.137 80.7056 29.137C80.6236 31.31 81.2796 33.073 83.1656 33.073C86.4866 33.073 89.4796 26.349 90.8736 22.618C91.1196 21.921 92.1856 22.372 91.8986 23.069C90.4226 27.087 87.1426 35 82.5096 35ZM84.1496 20.937C82.5096 22.167 81.1156 25.406 80.7876 28.194C83.0016 28.194 85.4616 24.873 85.4616 21.593C85.4616 20.732 84.7646 20.445 84.1496 20.937ZM95.6418 32.212C95.7238 31.679 95.7648 31.187 95.8468 30.654C95.8878 30.572 95.8878 30.49 95.8878 30.367C94.6988 32.868 93.1408 35 91.2958 35C89.6558 35 88.7538 33.934 88.5898 32.458C88.0568 27.989 90.3528 20.896 94.4118 18.723C95.6828 17.985 97.1588 18.969 98.6348 19.707C98.7168 19.584 98.7988 19.338 98.8398 19.174C99.0038 18.846 99.2088 18.641 99.4548 18.641C100.234 18.641 101.587 19.379 102.079 19.83C102.53 20.158 102.038 20.691 101.874 21.101C100.521 24.709 99.4958 29.465 98.9628 32.458C98.8398 33.073 99.2088 33.073 99.5368 32.745C102.038 30.244 103.76 25.447 104.826 22.659C105.113 21.962 106.138 22.372 105.892 23.069C104.826 25.816 101.423 35 97.8968 35C96.4618 35 95.5188 33.524 95.6418 32.212ZM92.4848 32.868C94.4528 32.868 97.1588 23.889 97.7738 21.962C97.8968 21.593 98.0198 21.224 98.1838 20.896C97.9788 20.568 97.6508 20.363 97.1998 20.363C94.3708 20.363 92.1978 27.415 91.9518 30.941C91.9108 31.392 91.8288 32.868 92.4848 32.868ZM109.99 30.982C109.99 30.777 110.031 30.572 110.031 30.326C108.883 32.786 107.284 35 105.275 35C103.225 35 102.364 33.442 102.282 31.679C102.077 27.251 104.045 20.773 107.858 18.723C109.17 17.985 110.728 19.01 111.876 19.584C113.147 13.721 114.787 8.555 115.73 8.555C116.55 8.555 119.338 9.621 119.338 10.236C119.338 10.318 119.297 10.4 119.215 10.441C119.051 10.687 118.846 10.851 118.723 11.138C116.673 14.828 114.008 26.308 113.27 32.089C113.147 32.991 113.352 33.155 113.926 32.54C116.304 29.998 118.149 25.365 119.174 22.659C119.461 21.962 120.486 22.372 120.24 23.069C119.174 25.816 115.607 35 112.081 35C109.785 35 109.867 32.581 109.99 30.982ZM110.646 20.363C107.94 20.363 106.136 26.882 105.767 30.49C105.644 31.884 105.972 32.745 106.587 32.745C106.997 32.745 107.53 32.335 108.104 31.433C109.047 30.039 109.949 27.866 110.646 25.857C110.892 24.299 111.22 22.659 111.548 21.019C111.384 20.65 111.056 20.363 110.646 20.363ZM122.028 35C112.147 35 117.682 18.477 123.545 18.477C125.103 18.477 127.85 20.568 127.85 22.372C127.85 26.185 123.381 29.137 120.224 29.137C120.142 31.31 120.798 33.073 122.684 33.073C126.005 33.073 128.998 26.349 130.392 22.618C130.638 21.921 131.704 22.372 131.417 23.069C129.941 27.087 126.661 35 122.028 35ZM123.668 20.937C122.028 22.167 120.634 25.406 120.306 28.194C122.52 28.194 124.98 24.873 124.98 21.593C124.98 20.732 124.283 20.445 123.668 20.937ZM128.026 33.032C128.395 28.727 129.748 23.11 131.47 19.174C131.593 18.846 131.839 18.641 132.044 18.641C132.864 18.641 134.217 19.379 134.709 19.83C135.119 20.158 134.668 20.691 134.504 21.101C133.766 23.069 133.028 25.406 132.495 27.62C133.971 24.463 136.144 20.568 138.112 18.928C138.317 18.723 138.604 18.641 138.891 18.641C139.342 18.641 140.818 19.092 141.433 19.707C141.966 20.24 141.638 20.65 141.187 20.978C139.793 22.167 139.096 24.217 139.014 25.652C138.973 26.677 139.342 27.128 139.793 27.128C141.515 27.128 143.155 23.848 143.934 22.536C144.344 21.921 145.287 22.495 144.918 23.151C144.016 24.627 142.294 27.825 140.326 28.522C138.932 29.055 136.349 27.784 136.144 25.98C136.021 24.75 136.636 22.823 137.251 21.593C137.415 21.224 137.292 21.306 137.128 21.511C134.463 24.709 131.306 31.884 131.101 34.549C131.101 34.959 130.855 35 130.609 35C129.625 35 128.026 33.893 128.026 33.032Z" fill="black"/>
<defs>
<clipPath id="clip0_902_51">
<rect width="50" height="44.4858" fill="white"/>
</clipPath>
</defs>
</svg>
